<?xml version="1.0" encoding="UTF-8"?>
<svg width="160px" height="79px" viewBox="0 0 160 79" version="1.1" xmlns="http://www.w3.org/2000/svg" xmlns:xlink="http://www.w3.org/1999/xlink">
    <!-- Generator: Sketch 49.3 (51167) - http://www.bohemiancoding.com/sketch -->
    <title>Gio</title>
    <desc>Created with Sketch.</desc>
    <defs></defs>
    <g id="Icons" stroke="none" stroke-width="1" fill="none" fill-rule="evenodd">
        <path d="M42.5292969,37.5976562 L73.6816406,37.5976562 L73.6816406,40.0878906 C73.6816406,45.7519814 73.0143296,50.7649521 71.6796875,55.1269531 C70.3775977,59.1634316 68.180354,62.9394355 65.0878906,66.4550781 C58.0891577,74.3327217 49.186252,78.2714844 38.3789062,78.2714844 C27.8319785,78.2714844 18.7988657,74.4629287 11.2792969,66.8457031 C3.75972803,59.1959253 0,50.0163296 0,39.3066406 C0,28.3690859 3.82483154,19.091835 11.4746094,11.4746094 C19.1243872,3.82483154 28.4341899,0 39.4042969,0 C45.2962534,0 50.7975005,1.20441504 55.9082031,3.61328125 C60.79104,6.02214746 65.5924243,9.9283584 70.3125,15.3320312 L62.2070313,23.0957031 C56.0221045,14.8599849 48.4863726,10.7421875 39.5996094,10.7421875 C31.6243091,10.7421875 24.9349229,13.492811 19.53125,18.9941406 C14.1275771,24.3978135 11.4257812,31.1685791 11.4257812,39.3066406 C11.4257812,47.7051201 14.4368188,54.6223687 20.4589844,60.0585937 C26.0905229,65.1041919 32.1939775,67.6269531 38.7695312,67.6269531 C44.3685176,67.6269531 49.3977642,65.7389512 53.8574219,61.9628906 C58.3170796,58.1542778 60.8072891,53.5970317 61.328125,48.2910156 L42.5292969,48.2910156 L42.5292969,37.5976562 Z M96.875,29.296875 L96.875,76.8554688 L85.8886719,76.8554688 L85.8886719,29.296875 L96.875,29.296875 Z M84.2285156,9.52148437 C84.2285156,7.60090186 84.9283784,5.94076221 86.328125,4.54101562 C87.7278716,3.14126904 89.4042871,2.44140625 91.3574219,2.44140625 C93.3431089,2.44140625 95.0358003,3.14126904 96.4355469,4.54101562 C97.8352935,5.90820996 98.5351562,7.58462549 98.5351562,9.5703125 C98.5351562,11.5559995 97.8352935,13.2486909 96.4355469,14.6484375 C95.0683525,16.0481841 93.391937,16.7480469 91.40625,16.7480469 C89.420563,16.7480469 87.7278716,16.0481841 86.328125,14.6484375 C84.9283784,13.2486909 84.2285156,11.5397236 84.2285156,9.52148437 Z M108.544922,52.734375 C108.544922,45.8658511 111.00258,40.0228105 115.917969,35.2050781 C120.833358,30.3873457 126.822881,27.9785156 133.886719,27.9785156 C140.983108,27.9785156 147.005184,30.4036216 151.953125,35.2539062 C156.835962,40.1041909 159.277344,46.0611626 159.277344,53.125 C159.277344,60.2539419 156.819686,66.2271895 151.904297,71.0449219 C146.956355,75.8301021 140.885453,78.2226562 133.691406,78.2226562 C126.562464,78.2226562 120.589217,75.7812744 115.771484,70.8984375 C110.953752,66.0807051 108.544922,60.0260781 108.544922,52.734375 Z M119.775391,52.9296875 C119.775391,57.6823154 121.044909,61.4420435 123.583984,64.2089844 C126.188164,67.0084775 129.622375,68.4082031 133.886719,68.4082031 C138.183615,68.4082031 141.617826,67.0247534 144.189453,64.2578125 C146.761081,61.4908716 148.046875,57.7962471 148.046875,53.1738281 C148.046875,48.5514092 146.761081,44.8567847 144.189453,42.0898438 C141.585273,39.2903506 138.151063,37.890625 133.886719,37.890625 C129.687479,37.890625 126.28582,39.2903506 123.681641,42.0898438 C121.077461,44.8893369 119.775391,48.502582 119.775391,52.9296875 Z" id="Gio" fill="#000000"></path>
    </g>
</svg>