<?xml version="1.0" encoding="UTF-8"?>
<svg width="48px" height="15px" viewBox="0 0 48 15" version="1.1" xmlns="http://www.w3.org/2000/svg" xmlns:xlink="http://www.w3.org/1999/xlink">
    <!-- Generator: Sketch 49.3 (51167) - http://www.bohemiancoding.com/sketch -->
    <title>Giovani</title>
    <desc>Created with Sketch.</desc>
    <defs></defs>
    <g id="Images" stroke="none" stroke-width="1" fill="none" fill-rule="evenodd">
        <path d="M3.88916016,14.168457 C3.00048384,14.168457 2.24609685,13.8559602 1.62597656,13.230957 C1.00585627,12.6059539 0.695800781,11.8564497 0.695800781,10.9824219 L0.695800781,3.66552734 C0.695800781,2.78173386 1.00829766,2.02856757 1.63330078,1.40600586 C2.25830391,0.783444153 3.01024951,0.472167969 3.88916016,0.472167969 C4.77783647,0.472167969 5.53100277,0.784664844 6.14868164,1.40966797 C6.76636051,2.03467109 7.07519531,2.7866167 7.07519531,3.66552734 L7.07519531,5.18896484 L4.98779297,5.18896484 L4.98779297,3.62890625 C4.98779297,3.30663901 4.87426871,3.03198356 4.6472168,2.80493164 C4.42016488,2.57787972 4.14550942,2.46435547 3.82324219,2.46435547 C3.50585779,2.46435547 3.2348644,2.57787972 3.01025391,2.80493164 C2.78564341,3.03198356 2.67333984,3.30663901 2.67333984,3.62890625 L2.67333984,10.9604492 C2.67333984,11.2827165 2.78564341,11.5561512 3.01025391,11.7807617 C3.2348644,12.0053722 3.50585779,12.1176758 3.82324219,12.1176758 C4.14550942,12.1176758 4.42016488,12.0053722 4.6472168,11.7807617 C4.87426871,11.5561512 4.98779297,11.2827165 4.98779297,10.9604492 L4.98779297,8.33105469 L3.8671875,8.33105469 L3.8671875,6.31689453 L7.07519531,6.31689453 L7.07519531,10.9824219 C7.07519531,11.8710982 6.76269844,12.6242645 6.13769531,13.2419434 C5.51269219,13.8596222 4.76318796,14.168457 3.88916016,14.168457 Z M10.8251953,14 L8.81835938,14 L8.81835938,0.640625 L10.8251953,0.640625 L10.8251953,14 Z M15.7910156,0.479492188 C16.6796919,0.479492188 17.4352996,0.791989063 18.0578613,1.41699219 C18.680423,2.04199531 18.9916992,2.7963823 18.9916992,3.68017578 L18.9916992,10.9677734 C18.9916992,11.8564498 18.6792023,12.6120574 18.0541992,13.2346191 C17.4291961,13.8571808 16.6748091,14.168457 15.7910156,14.168457 C14.9072221,14.168457 14.1564972,13.8559602 13.5388184,13.230957 C12.9211395,12.6059539 12.6123047,11.8515669 12.6123047,10.9677734 L12.6123047,3.68017578 C12.6123047,2.79149946 12.9248016,2.03589178 13.5498047,1.41333008 C14.1748078,0.790768372 14.9218707,0.479492188 15.7910156,0.479492188 Z M16.8896484,3.63623047 C16.8896484,3.31396323 16.7785656,3.04174916 16.5563965,2.81958008 C16.3342274,2.597411 16.0620133,2.48632812 15.7397461,2.48632812 C15.4223617,2.48632812 15.1501476,2.597411 14.9230957,2.81958008 C14.6960438,3.04174916 14.5825195,3.31396323 14.5825195,3.63623047 L14.5825195,10.953125 C14.5825195,11.2705094 14.6960438,11.5415028 14.9230957,11.7661133 C15.1501476,11.9907238 15.4223617,12.1030273 15.7397461,12.1030273 C16.0620133,12.1030273 16.3342274,11.9907238 16.5563965,11.7661133 C16.7785656,11.5415028 16.8896484,11.2705094 16.8896484,10.953125 L16.8896484,3.63623047 Z M22.7563477,14 L20.3759766,0.640625 L22.4853516,0.640625 L24.1552734,11.0410156 L25.847168,0.640625 L27.956543,0.640625 L25.5322266,14 L22.7563477,14 Z M30.1098633,10.9311523 L29.6191406,14 L27.5244141,14 L29.7875977,0.640625 L32.5634766,0.640625 L34.7973633,14 L32.6879883,14 L32.2119141,10.9311523 L30.1098633,10.9311523 Z M31.1645508,3.70214844 L30.4174805,8.96826172 L31.9116211,8.96826172 L31.1645508,3.70214844 Z M38.7597656,0.640625 L41.4257812,9.61279297 L41.4257812,0.640625 L43.4399414,0.640625 L43.4399414,14 L41.2792969,14 L38.503418,5.4453125 L38.503418,14 L36.496582,14 L36.496582,0.640625 L38.7597656,0.640625 Z M47.2485352,14 L45.2416992,14 L45.2416992,0.640625 L47.2485352,0.640625 L47.2485352,14 Z" id="Giovani" fill="#000000"></path>
    </g>
</svg>